<?xml version="1.0" standalone="no"?>
<!DOCTYPE svg PUBLIC "-//W3C//DTD SVG 20010904//EN"
 "http://www.w3.org/TR/2001/REC-SVG-20010904/DTD/svg10.dtd">
<svg version="1.0" xmlns="http://www.w3.org/2000/svg"
 width="800.000000pt" height="800.000000pt" viewBox="0 0 800.000000 800.000000"
 preserveAspectRatio="xMidYMid meet">
<metadata>
Created by potrace 1.11, written by Peter Selinger 2001-2013
</metadata>
<g transform="translate(0.000000,800.000000) scale(0.100000,-0.100000)"
fill="#000000" stroke="none">
<path d="M3818 7995 c-2 -2 -41 -6 -88 -9 -47 -4 -98 -9 -113 -12 -15 -3 -44
-7 -65 -9 -75 -8 -238 -38 -307 -56 -49 -13 -71 -19 -110 -26 -16 -2 -35 -9
-41 -14 -7 -5 -16 -9 -20 -8 -5 1 -16 -1 -24 -4 -8 -3 -44 -15 -80 -26 -82
-24 -229 -78 -252 -91 -10 -5 -25 -10 -33 -10 -8 0 -15 -4 -15 -10 0 -5 -3 -9
-7 -8 -16 3 -234 -101 -363 -173 -124 -69 -387 -246 -472 -319 -16 -13 -49
-40 -107 -88 -179 -148 -422 -408 -599 -641 -26 -35 -201 -296 -220 -330 -13
-23 -27 -47 -73 -128 -56 -99 -166 -328 -190 -395 -7 -21 -17 -38 -22 -38 -4
0 -6 -4 -2 -9 3 -5 1 -12 -5 -16 -5 -3 -10 -15 -10 -26 0 -10 -4 -27 -10 -37
-9 -15 -52 -127 -56 -144 -1 -5 -2 -9 -4 -10 -1 -2 -3 -10 -5 -18 -1 -8 -10
-37 -20 -65 -21 -61 -74 -259 -81 -300 -3 -16 -9 -43 -14 -60 -5 -16 -12 -47
-16 -69 -3 -21 -8 -48 -10 -60 -3 -11 -7 -33 -9 -48 -2 -15 -9 -53 -14 -85 -6
-32 -13 -78 -15 -103 -3 -25 -7 -65 -11 -90 -14 -106 -18 -201 -17 -460 0
-296 6 -420 27 -540 3 -14 7 -47 10 -75 5 -46 11 -86 22 -140 2 -11 6 -36 9
-55 3 -19 7 -43 10 -52 3 -9 7 -25 9 -35 21 -96 55 -235 69 -278 12 -40 30
-102 32 -110 5 -22 93 -265 118 -325 59 -141 189 -407 231 -470 5 -8 10 -17
10 -20 2 -12 199 -318 222 -345 5 -5 29 -37 53 -70 24 -33 50 -67 59 -76 9 -9
27 -31 41 -49 99 -127 330 -365 476 -490 72 -61 254 -200 263 -200 5 0 11 -4
13 -8 8 -20 302 -203 408 -255 14 -6 28 -15 31 -20 3 -5 9 -8 13 -7 4 0 39
-14 79 -33 148 -70 371 -161 423 -172 10 -2 38 -10 62 -19 23 -8 42 -13 42 -9
0 3 6 1 12 -4 12 -9 40 -18 88 -28 8 -2 51 -12 95 -23 44 -11 96 -23 115 -26
19 -2 46 -7 60 -10 14 -4 41 -8 60 -11 19 -2 51 -7 70 -10 214 -35 686 -40
895 -11 95 13 133 19 150 23 11 2 43 8 70 13 88 16 108 21 210 46 55 14 107
27 115 29 51 12 311 103 377 132 21 9 41 16 46 15 4 -1 7 2 7 7 0 5 12 12 27
16 43 10 293 138 378 193 11 6 27 15 35 19 8 4 17 9 20 12 9 10 44 31 63 37 9
4 17 10 17 15 0 5 4 9 10 9 11 0 113 71 118 82 2 5 8 8 14 8 6 0 45 27 87 60
42 33 81 63 86 67 146 109 439 404 586 588 35 44 67 85 72 90 26 32 177 246
177 251 0 3 11 20 24 37 30 39 100 172 114 218 21 64 20 137 -2 247 -6 28 -55
129 -76 155 -27 34 -183 187 -191 187 -4 0 -14 6 -21 13 -7 7 -31 24 -53 37
-22 13 -42 27 -45 30 -10 12 -176 89 -234 109 -46 16 -80 20 -160 18 -94 -2
-105 -4 -164 -36 -60 -33 -182 -138 -182 -158 0 -5 -8 -18 -18 -29 -10 -10
-40 -55 -67 -99 -27 -44 -54 -85 -60 -91 -5 -6 -17 -22 -25 -34 -8 -12 -28
-41 -45 -63 -16 -22 -34 -47 -40 -55 -5 -8 -17 -23 -25 -32 -8 -9 -43 -48 -78
-87 -115 -131 -262 -266 -377 -348 -16 -11 -41 -31 -57 -43 -15 -13 -28 -20
-28 -15 0 4 -4 3 -8 -3 -6 -10 -71 -54 -117 -80 -203 -113 -385 -190 -540
-230 -5 -1 -35 -9 -65 -17 -30 -9 -71 -18 -90 -21 -59 -10 -94 -16 -115 -21
-89 -19 -444 -27 -565 -12 -102 13 -217 34 -293 53 -32 9 -66 17 -75 19 -70
13 -291 102 -415 166 -132 69 -142 74 -147 80 -3 3 -21 14 -40 24 -19 10 -37
21 -40 25 -3 3 -27 21 -55 40 -94 64 -226 174 -329 276 -283 281 -532 679
-576 922 -12 66 -18 162 -10 162 3 0 6 15 7 34 4 75 76 163 163 200 25 10 54
22 65 27 11 5 40 11 65 14 25 3 54 9 65 12 11 3 238 7 505 9 267 1 492 4 500
7 8 2 24 7 35 11 11 5 38 15 59 23 22 8 52 23 67 34 15 10 30 19 34 19 10 0
88 83 108 116 16 25 62 121 87 179 75 173 107 558 66 783 -36 193 -156 311
-336 328 -84 8 -229 2 -250 -11 -4 -2 -22 -7 -41 -10 -46 -9 -64 -13 -64 -15
0 -1 -8 -3 -17 -5 -9 -2 -99 -30 -200 -63 -260 -86 -355 -101 -538 -88 -93 7
-138 15 -195 37 -89 33 -163 111 -180 189 -9 42 -14 170 -6 170 3 0 7 14 8 31
4 53 45 169 93 265 52 100 121 217 133 222 4 2 7 9 7 16 0 7 8 21 18 32 9 10
29 37 44 60 112 173 408 477 553 569 17 11 32 22 35 25 11 14 131 93 160 106
8 4 22 13 30 19 18 15 233 125 252 129 7 2 31 11 53 21 22 10 48 20 58 22 10
2 31 10 47 18 17 9 33 16 37 16 5 1 13 3 18 5 43 14 211 55 260 63 33 6 76 13
95 16 80 14 134 17 310 18 196 0 287 -7 388 -29 13 -3 43 -7 65 -11 23 -3 60
-11 82 -18 22 -7 56 -17 75 -21 41 -9 41 -9 60 -16 8 -3 56 -20 105 -38 145
-52 340 -152 480 -245 72 -48 137 -93 145 -101 8 -7 49 -42 90 -76 75 -62 300
-287 300 -299 0 -3 12 -19 26 -35 42 -47 134 -173 134 -183 0 -5 7 -11 15 -15
8 -3 15 -10 15 -15 0 -6 20 -41 44 -78 23 -37 61 -102 82 -143 21 -41 41 -77
44 -80 5 -5 29 -79 61 -185 13 -42 17 -191 7 -236 -24 -104 -135 -191 -278
-218 -72 -13 -265 -7 -360 12 -41 9 -149 40 -240 70 -167 56 -239 77 -275 83
-11 1 -45 7 -75 13 -30 6 -64 11 -75 11 -11 0 -40 1 -65 1 -113 4 -221 -33
-290 -100 -99 -95 -138 -229 -138 -473 0 -84 4 -178 9 -208 5 -30 11 -73 14
-95 6 -55 14 -90 25 -120 5 -14 7 -25 4 -25 -4 0 0 -7 7 -17 8 -9 13 -19 13
-22 -2 -7 1 -16 38 -111 16 -41 36 -82 44 -91 8 -8 14 -20 14 -26 0 -23 102
-112 168 -146 68 -36 85 -42 177 -57 51 -9 1419 -6 1465 3 14 2 52 8 85 12 33
4 63 9 67 12 5 2 27 6 50 9 23 3 67 12 97 20 31 9 61 16 66 18 13 3 116 36
135 43 8 3 20 7 27 9 6 1 58 25 115 54 186 94 328 209 440 358 46 61 128 218
128 245 0 8 3 17 7 21 4 3 8 12 9 19 1 7 7 33 13 59 33 143 37 443 7 568 -4
14 -8 41 -10 60 -3 19 -5 35 -6 35 -1 0 -4 13 -6 30 -7 42 -58 224 -94 341
-75 234 -242 612 -351 791 -21 36 -39 67 -39 69 0 9 -183 279 -191 282 -5 2
-9 8 -9 14 0 5 -21 35 -46 66 -25 31 -60 75 -77 97 -67 83 -175 203 -267 295
-82 82 -130 127 -235 219 -184 161 -497 368 -745 491 -93 46 -288 130 -360
155 -3 1 -12 4 -20 8 -187 74 -546 158 -785 183 -33 4 -76 8 -95 11 -42 5
-518 12 -522 8z"/>
</g>
</svg>
